<?xml version="1.0" encoding="utf-8"?>
<!-- Generator: Adobe Illustrator 19.0.1, SVG Export Plug-In . SVG Version: 6.00 Build 0)  -->
<!DOCTYPE svg PUBLIC "-//W3C//DTD SVG 1.1//EN" "http://www.w3.org/Graphics/SVG/1.1/DTD/svg11.dtd">
<svg version="1.1" id="レイヤー_1" xmlns="http://www.w3.org/2000/svg" xmlns:xlink="http://www.w3.org/1999/xlink" x="0px"
	 y="0px" viewBox="80 -80 180 180" style="enable-background:new 80 -80 180 180;" xml:space="preserve">
<style type="text/css">
	.st0{fill:#FFFFFF;}
</style>
<path class="st0" d="M258.8,90.2l-72.1-72c8.9-10.5,14.3-24,14.3-38.8c0-33.1-26.9-60-60-60s-60,26.9-60,60c0,33.1,26.9,60,60,60
	c14.7,0,28.2-5.3,38.7-14.2l72.1,72c1,1,2.3,1.5,3.5,1.5c1.3,0,2.6-0.5,3.5-1.5C260.8,95.3,260.8,92.1,258.8,90.2z M91-20.6
	c0-27.6,22.4-50,50-50s50,22.4,50,50c0,13.7-5.5,26.1-14.5,35.2c-0.1,0.1-0.2,0.1-0.2,0.2c-0.1,0.1-0.1,0.1-0.2,0.2
	c-9,8.9-21.4,14.4-35.1,14.4C113.4,29.4,91,7,91-20.6z"/>
</svg>
