<?xml version="1.0" encoding="utf-8"?>
<!-- Generator: Adobe Illustrator 19.0.1, SVG Export Plug-In . SVG Version: 6.00 Build 0)  -->
<!DOCTYPE svg PUBLIC "-//W3C//DTD SVG 1.1//EN" "http://www.w3.org/Graphics/SVG/1.1/DTD/svg11.dtd">
<svg version="1.1" id="レイヤー_1" xmlns="http://www.w3.org/2000/svg" xmlns:xlink="http://www.w3.org/1999/xlink" x="0px"
	 y="0px" viewBox="80 -80 180 180" style="enable-background:new 80 -80 180 180;" xml:space="preserve">
<style type="text/css">
	.st0{fill:#666666;}
</style>
<path class="st0" d="M216.2,84.6h-92.3c-15.7,0-28.4-12.7-28.4-28.4h10c0,10.1,8.3,18.4,18.4,18.4h92.3c10.1,0,18.4-8.3,18.4-18.4
	v-92.3c0-10.1-8.3-18.4-18.4-18.4h-92.3c-10.1,0-18.4,8.3-18.4,18.4h-10c0-15.7,12.7-28.4,28.4-28.4h92.3
	c15.7,0,28.4,12.7,28.4,28.4v92.3C244.6,71.9,231.9,84.6,216.2,84.6z"/>
<polygon class="st0" points="198,21.3 84.3,21.3 84.3,3.3 153.5,3 153.5,-15.3 "/>
</svg>
